<?xml version="1.0" standalone="no"?>
<!DOCTYPE svg PUBLIC "-//W3C//DTD SVG 20010904//EN"
 "http://www.w3.org/TR/2001/REC-SVG-20010904/DTD/svg10.dtd">
<svg version="1.0" xmlns="http://www.w3.org/2000/svg"
 width="1024.000000pt" height="1024.000000pt" viewBox="0 0 1024.000000 1024.000000"
 preserveAspectRatio="xMidYMid meet">

<g transform="translate(0.000000,1024.000000) scale(0.100000,-0.100000)"
fill="#000000" stroke="none">
<path d="M4700 9449 c-200 -24 -329 -41 -365 -49 -22 -5 -78 -16 -125 -25 -79
-16 -184 -42 -322 -79 -121 -33 -392 -132 -523 -191 -136 -61 -289 -138 -361
-180 -41 -25 -78 -45 -80 -45 -5 0 -26 -14 -198 -125 -569 -368 -1052 -883
-1397 -1490 -29 -50 -163 -320 -192 -385 -33 -76 -66 -158 -90 -225 -14 -38
-35 -97 -47 -130 -13 -33 -26 -73 -31 -90 -4 -16 -15 -55 -24 -85 -71 -244
-120 -494 -150 -770 -13 -124 -16 -222 -12 -495 5 -374 18 -541 57 -720 4 -22
13 -65 19 -95 12 -59 47 -206 61 -255 4 -16 15 -55 23 -85 31 -110 103 -320
138 -397 10 -24 19 -45 19 -49 0 -3 11 -30 25 -60 14 -30 25 -57 25 -60 0 -7
128 -263 160 -319 307 -547 712 -1011 1200 -1376 94 -71 329 -228 395 -264 28
-16 82 -46 120 -67 278 -154 763 -344 1020 -398 28 -6 66 -15 85 -19 528 -129
1145 -147 1710 -51 288 49 692 166 925 270 22 10 65 28 95 41 79 33 352 173
397 203 21 14 41 26 45 26 14 0 262 163 378 249 169 124 333 265 478 410 114
115 272 289 327 362 229 302 361 512 501 795 57 116 104 218 104 226 0 8 4 18
9 24 7 8 34 77 101 259 37 100 98 314 120 420 5 22 14 63 20 90 21 95 50 282
71 460 27 235 21 729 -11 955 -5 36 -17 115 -25 175 -9 61 -20 128 -25 150
-35 161 -50 224 -65 275 -7 25 -18 65 -25 90 -39 138 -122 372 -166 468 -13
29 -24 55 -24 58 0 12 -127 270 -182 369 -122 218 -315 495 -488 701 -75 89
-321 341 -415 425 -315 282 -705 536 -1090 709 -212 96 -510 202 -675 240 -19
4 -60 15 -90 23 -30 8 -82 21 -115 27 -33 7 -80 16 -105 21 -240 48 -495 69
-830 68 -168 -1 -339 -6 -380 -10z m302 -1546 c3 -18 -3 -94 -22 -248 -22
-188 -30 -326 -30 -551 0 -349 12 -401 173 -734 160 -333 203 -423 314 -665
63 -137 135 -292 159 -344 24 -51 44 -95 44 -97 0 -2 16 -39 36 -81 116 -250
281 -616 349 -773 70 -163 123 -318 162 -477 22 -92 26 -131 27 -263 0 -139
-2 -162 -23 -220 -81 -224 -244 -461 -490 -714 -124 -126 -344 -313 -429 -363
-39 -23 -45 -24 -59 -11 -16 16 -17 -1 27 415 6 50 10 219 10 375 0 281 -9
386 -41 464 -6 16 -15 38 -19 49 -4 11 -20 46 -34 78 -14 32 -26 59 -26 61 0
2 -45 98 -101 212 -96 198 -182 383 -378 807 -16 34 -82 179 -146 322 -65 143
-133 293 -151 333 -19 41 -34 75 -34 77 0 2 -17 41 -39 87 -79 171 -103 225
-128 283 -114 268 -184 581 -168 749 17 179 127 402 317 643 75 96 356 377
458 459 170 137 233 170 242 127z m-1819 -663 c-1 -36 -7 -112 -13 -170 -7
-58 -15 -210 -17 -339 -6 -310 -1 -335 114 -591 9 -19 49 -104 90 -189 40 -84
73 -154 73 -156 0 -1 32 -69 70 -149 39 -81 70 -149 70 -151 0 -5 31 -73 104
-228 25 -55 46 -100 46 -102 0 -2 13 -32 29 -67 16 -35 47 -103 69 -153 22
-49 56 -125 76 -168 20 -42 36 -79 36 -82 0 -2 15 -35 33 -72 18 -38 50 -113
71 -168 20 -55 42 -110 47 -123 21 -52 59 -279 59 -352 0 -193 -135 -436 -387
-696 -152 -157 -344 -314 -383 -314 -19 0 -36 32 -26 49 3 5 15 109 27 232 32
334 22 563 -29 724 -13 39 -42 103 -142 310 -74 153 -169 354 -237 505 -14 30
-43 93 -64 138 -22 46 -39 86 -39 88 0 2 -20 45 -44 96 -67 143 -106 229 -106
234 0 2 -20 47 -45 100 -25 52 -45 96 -45 98 0 2 -20 46 -44 98 -158 338 -216
639 -156 808 52 147 130 277 263 435 140 167 443 429 487 422 12 -2 15 -17 13
-67z m3669 -5 c-1 -39 -6 -113 -12 -165 -5 -52 -14 -139 -20 -192 -13 -128
-13 -327 1 -402 16 -83 55 -210 84 -271 13 -27 42 -90 65 -140 102 -216 120
-255 165 -350 92 -195 127 -272 215 -465 29 -63 66 -144 82 -180 17 -36 48
-105 70 -155 22 -49 51 -115 65 -145 169 -369 225 -544 239 -742 13 -185 -55
-349 -241 -583 -129 -162 -384 -402 -493 -463 -67 -37 -67 -34 -31 273 27 239
22 534 -12 655 -17 59 -80 209 -137 325 -30 61 -113 236 -184 390 -169 365
-163 353 -220 480 -27 61 -55 124 -63 140 -12 26 -41 91 -147 325 -140 308
-191 464 -207 639 -13 144 10 261 77 381 14 25 34 60 44 79 93 165 365 450
568 594 87 62 96 60 92 -28z"/>
</g>
</svg>
