<?xml version="1.0" standalone="no"?>
<!DOCTYPE svg PUBLIC "-//W3C//DTD SVG 20010904//EN"
 "http://www.w3.org/TR/2001/REC-SVG-20010904/DTD/svg10.dtd">
<svg version="1.0" xmlns="http://www.w3.org/2000/svg"
 width="180.000000pt" height="180.000000pt" viewBox="0 0 180.000000 180.000000"
 preserveAspectRatio="xMidYMid meet">

<g transform="translate(0.000000,180.000000) scale(0.100000,-0.100000)"
fill="#000000" stroke="none">
<path d="M548 1506 c-330 -191 -345 -201 -307 -204 l39 -3 0 -165 0 -164 125
0 125 0 0 165 0 165 45 0 45 0 0 -400 0 -400 -45 0 -45 0 0 180 0 180 -125 0
-125 0 0 -179 0 -180 -42 -3 c-41 -3 -33 -8 309 -205 l352 -202 338 195 c186
108 342 200 347 205 6 5 -4 9 -26 9 l-36 0 -62 156 -63 156 -54 -149 c-29 -81
-57 -151 -62 -156 -4 -4 -31 -7 -58 -5 l-50 3 84 201 84 201 -76 184 c-43 101
-80 190 -82 197 -4 10 8 12 52 10 l58 -3 56 -146 55 -147 49 132 c27 72 51
139 54 148 4 12 18 18 51 20 l46 3 -352 203 c-194 111 -354 202 -355 201 -1
-1 -158 -92 -349 -203z m290 -318 c21 -62 47 -138 57 -168 10 -30 20 -58 24
-62 3 -4 33 71 65 167 l58 175 54 0 c30 0 54 -3 54 -7 0 -4 -43 -112 -95 -239
l-95 -232 0 -161 0 -161 -45 0 -45 0 0 163 0 162 -90 233 c-49 128 -90 235
-90 237 0 3 24 5 54 5 l54 0 40 -112z"/>
</g>
</svg>
